<!-- Generator: Adobe Illustrator 16.0.0, SVG Export Plug-In . SVG Version: 6.00 Build 0)  -->
<!DOCTYPE svg PUBLIC "-//W3C//DTD SVG 1.1//EN" "http://www.w3.org/Graphics/SVG/1.1/DTD/svg11.dtd">
<svg version="1.1" id="Layer_1" xmlns="http://www.w3.org/2000/svg" xmlns:xlink="http://www.w3.org/1999/xlink" x="0px" y="0px"
	 width="269px" height="43.756px" viewBox="0 0 269 43.756" enable-background="new 0 0 269 43.756" xml:space="preserve">
<g>
	<path fill-rule="evenodd" clip-rule="evenodd" fill="#FFFFFF" d="M225.435,17.238C227.438,7.728,235.505,0.899,244.763,0
		l-6.732,32.222c-0.699,3.378,4.143,4.686,4.885,1.147l6.967-33.304c12.592,1.488,21.268,14.061,18.652,26.477
		c-1.977,9.419-9.934,16.204-19.105,17.214l6.758-32.288c0.816-3.851-4.145-4.934-4.975-0.9l-6.967,33.188
		C231.56,42.383,222.772,29.72,225.435,17.238"/>
	<path fill-rule="evenodd" clip-rule="evenodd" fill="#FFFFFF" d="M0.951,1.117h2.366v9.544c0,1.061,0.059,1.816,0.173,2.26
		c0.115,0.443,0.307,0.827,0.579,1.15c0.49,0.583,1.069,1.01,1.745,1.299c0.672,0.283,1.441,0.427,2.296,0.427
		c1.44,0,2.601-0.373,3.482-1.112c0.879-0.752,1.314-1.729,1.314-2.952V1.117h2.37v10.689c0,1.854-0.662,3.354-1.984,4.512
		c-1.329,1.149-3.051,1.728-5.182,1.728c-1.26,0-2.399-0.225-3.413-0.674c-1.014-0.448-1.87-1.107-2.567-1.966
		c-0.428-0.513-0.731-1.093-0.911-1.721c-0.175-0.638-0.269-1.612-0.269-2.927V1.117z M18.367,17.751V6.766h2.185V8.11
		c0.549-0.525,1.09-0.906,1.636-1.152c0.544-0.235,1.129-0.356,1.755-0.356c1.185,0,2.124,0.345,2.811,1.033
		c0.689,0.691,1.025,1.633,1.025,2.842v7.274h-2.186v-6.716c0-0.89-0.186-1.548-0.562-1.971c-0.382-0.425-0.966-0.633-1.754-0.633
		c-0.567,0-1.053,0.105-1.485,0.326c-0.419,0.212-0.833,0.574-1.241,1.076v7.917H18.367z M30.442,3.535
		c0-0.349,0.118-0.643,0.357-0.878c0.232-0.241,0.528-0.361,0.877-0.361c0.351,0,0.643,0.12,0.88,0.361
		c0.239,0.235,0.353,0.529,0.353,0.878c0,0.346-0.114,0.643-0.353,0.876c-0.237,0.24-0.529,0.358-0.88,0.358
		c-0.349,0-0.645-0.118-0.877-0.358C30.56,4.178,30.442,3.881,30.442,3.535 M30.584,6.766h2.187v10.985h-2.187V6.766z
		 M39.203,17.966l-5.29-11.2h2.439l3.388,7.289l3.161-7.289h2.387l-5.06,11.2H39.203z M56.096,16.586
		c-0.732,0.466-1.479,0.817-2.251,1.056c-0.775,0.231-1.57,0.346-2.399,0.346c-1.73,0-3.121-0.534-4.153-1.61
		c-1.035-1.072-1.552-2.508-1.552-4.297c0-1.642,0.499-2.976,1.497-3.997c0.989-1.021,2.29-1.533,3.888-1.533
		c1.582,0,2.846,0.521,3.766,1.561c0.931,1.038,1.394,2.433,1.394,4.205v0.322h-8.227c0.063,1.038,0.406,1.849,1.022,2.435
		c0.619,0.579,1.449,0.872,2.482,0.872c0.699,0,1.429-0.131,2.184-0.387c0.755-0.26,1.543-0.649,2.35-1.171V16.586z M48.059,11.079
		l5.817-0.014c-0.074-0.793-0.362-1.427-0.873-1.91c-0.502-0.483-1.135-0.724-1.902-0.724c-0.837,0-1.516,0.222-2.032,0.666
		C48.555,9.549,48.217,10.21,48.059,11.079 M58.357,17.751V6.766h2.186v2.384c0.609-0.955,1.156-1.625,1.649-2.001
		c0.489-0.383,1.016-0.574,1.585-0.574c0.394,0,0.798,0.086,1.205,0.259c0.41,0.176,0.844,0.446,1.304,0.815l-1.193,1.944
		c-0.354-0.31-0.698-0.532-1.021-0.671c-0.326-0.142-0.667-0.21-1.022-0.21c-0.589,0-1.112,0.251-1.557,0.751
		c-0.441,0.501-0.758,1.194-0.95,2.085v6.203H58.357z M66.746,17.003v-2.338c0.657,0.431,1.288,0.766,1.905,0.995
		c0.608,0.229,1.167,0.346,1.674,0.346c0.562,0,1.001-0.108,1.323-0.316c0.322-0.206,0.486-0.496,0.486-0.858
		c0-0.46-0.599-0.989-1.798-1.584c-0.352-0.175-0.618-0.312-0.807-0.419c-1.024-0.522-1.723-1.028-2.106-1.514
		c-0.382-0.487-0.572-1.084-0.572-1.789c0-0.923,0.331-1.654,0.986-2.193c0.657-0.539,1.562-0.806,2.711-0.806
		c0.62,0,1.217,0.075,1.787,0.218c0.567,0.146,1.125,0.375,1.676,0.684v2.144c-0.678-0.376-1.294-0.649-1.848-0.83
		c-0.56-0.178-1.09-0.269-1.59-0.269c-0.46,0-0.813,0.082-1.062,0.239c-0.251,0.156-0.373,0.386-0.373,0.689
		c0,0.557,0.762,1.21,2.29,1.965c0.091,0.041,0.157,0.069,0.204,0.094c1.198,0.603,1.978,1.133,2.343,1.588
		c0.361,0.459,0.547,1.032,0.547,1.731c0,0.966-0.366,1.738-1.09,2.317c-0.726,0.577-1.688,0.869-2.878,0.869
		c-0.69,0-1.345-0.08-1.967-0.24C67.962,17.565,67.348,17.327,66.746,17.003 M76.54,3.535c0-0.349,0.122-0.643,0.357-0.878
		c0.236-0.241,0.531-0.361,0.88-0.361c0.345,0,0.64,0.12,0.879,0.361c0.24,0.235,0.353,0.529,0.353,0.878
		c0,0.346-0.113,0.643-0.353,0.876c-0.239,0.24-0.534,0.358-0.879,0.358c-0.349,0-0.644-0.118-0.88-0.358
		C76.661,4.178,76.54,3.881,76.54,3.535 M76.683,6.766h2.189v10.985h-2.189V6.766z M89.324,15.312V9.13
		c-0.36-0.255-0.721-0.439-1.098-0.566c-0.368-0.122-0.769-0.184-1.197-0.184c-1.122,0-2.002,0.341-2.638,1.021
		c-0.647,0.684-0.965,1.624-0.965,2.821c0,1.199,0.318,2.139,0.965,2.822c0.636,0.688,1.517,1.028,2.638,1.028
		c0.428,0,0.829-0.061,1.197-0.185C88.603,15.763,88.964,15.572,89.324,15.312 M89.324,17.145c-0.406,0.277-0.845,0.481-1.303,0.619
		c-0.464,0.129-0.979,0.202-1.552,0.202c-1.586,0-2.873-0.531-3.877-1.596c-1.004-1.059-1.508-2.438-1.508-4.127
		s0.504-3.061,1.508-4.122c1.004-1.063,2.291-1.595,3.877-1.595c0.556,0,1.068,0.067,1.534,0.207
		c0.467,0.137,0.905,0.359,1.321,0.647V1.117h2.186v16.634h-2.186V17.145z M99.736,15.514v-3.216
		c-1.47,0.454-2.488,0.88-3.047,1.268c-0.558,0.392-0.838,0.842-0.838,1.357c0,0.447,0.144,0.796,0.432,1.042
		c0.292,0.247,0.694,0.368,1.218,0.368c0.392,0,0.773-0.068,1.14-0.207C99.014,15.981,99.375,15.783,99.736,15.514 M99.822,16.845
		c-0.554,0.391-1.083,0.669-1.578,0.842c-0.497,0.169-1.029,0.253-1.598,0.253c-0.983,0-1.749-0.234-2.307-0.704
		c-0.555-0.472-0.831-1.124-0.831-1.941c0-0.778,0.303-1.462,0.901-2.047c0.605-0.585,1.512-1.08,2.72-1.487l2.605-0.869
		c0.011-0.063,0.014-0.126,0.019-0.189c0.002-0.067,0.007-0.158,0.007-0.272c0-0.661-0.166-1.137-0.479-1.426
		c-0.324-0.282-0.851-0.433-1.59-0.433c-0.608,0-1.24,0.13-1.894,0.386c-0.646,0.264-1.294,0.644-1.945,1.149V7.943
		c0.562-0.463,1.193-0.807,1.893-1.044c0.699-0.234,1.432-0.35,2.224-0.35c1.403,0,2.435,0.314,3.078,0.934
		c0.64,0.62,0.961,1.629,0.961,3.015v4.646c0,0.389,0.032,0.669,0.103,0.827c0.071,0.162,0.179,0.245,0.342,0.245
		c0.133,0,0.268-0.04,0.418-0.107c0.146-0.073,0.387-0.241,0.72-0.502v1.335c-0.399,0.339-0.798,0.591-1.205,0.755
		c-0.404,0.161-0.82,0.242-1.26,0.242c-0.421,0-0.733-0.091-0.942-0.266C99.974,17.502,99.849,17.226,99.822,16.845 M112.458,15.312
		V9.13c-0.355-0.255-0.724-0.439-1.099-0.566c-0.367-0.122-0.768-0.184-1.195-0.184c-1.12,0-1.996,0.341-2.642,1.021
		c-0.646,0.684-0.96,1.624-0.96,2.821c0,1.199,0.314,2.139,0.96,2.822c0.646,0.688,1.521,1.028,2.642,1.028
		c0.427,0,0.828-0.061,1.195-0.185C111.734,15.763,112.103,15.572,112.458,15.312 M112.458,17.145
		c-0.404,0.277-0.84,0.481-1.302,0.619c-0.463,0.129-0.979,0.202-1.552,0.202c-1.584,0-2.875-0.531-3.874-1.596
		c-1.007-1.059-1.51-2.438-1.51-4.127s0.502-3.061,1.51-4.122c0.999-1.063,2.29-1.595,3.874-1.595c0.557,0,1.067,0.067,1.535,0.207
		c0.469,0.137,0.903,0.359,1.319,0.647V1.117h2.183v16.634h-2.183V17.145z M129.803,17.751V1.117h2.067l10.949,12.91V1.117h2.369
		v16.634h-2.121L132.159,4.827v12.924H129.803z M153.747,15.514v-3.216c-1.475,0.454-2.494,0.88-3.047,1.268
		c-0.561,0.392-0.84,0.842-0.84,1.357c0,0.447,0.143,0.796,0.434,1.042c0.285,0.247,0.693,0.368,1.215,0.368
		c0.393,0,0.773-0.068,1.143-0.207C153.022,15.981,153.392,15.783,153.747,15.514 M153.831,16.845
		c-0.553,0.391-1.084,0.669-1.576,0.842c-0.496,0.169-1.029,0.253-1.6,0.253c-0.984,0-1.748-0.234-2.303-0.704
		c-0.561-0.472-0.836-1.124-0.836-1.941c0-0.778,0.303-1.462,0.902-2.047c0.604-0.585,1.516-1.08,2.723-1.487l2.605-0.869
		c0.01-0.063,0.014-0.126,0.014-0.189c0.002-0.067,0.006-0.158,0.006-0.272c0-0.661-0.16-1.137-0.477-1.426
		c-0.324-0.282-0.848-0.433-1.588-0.433c-0.609,0-1.24,0.13-1.893,0.386c-0.648,0.264-1.297,0.644-1.945,1.149V7.943
		c0.564-0.463,1.193-0.807,1.896-1.044c0.691-0.234,1.428-0.35,2.215-0.35c1.41,0,2.436,0.314,3.086,0.934
		c0.637,0.62,0.961,1.629,0.961,3.015v4.646c0,0.389,0.027,0.669,0.1,0.827c0.064,0.162,0.178,0.245,0.34,0.245
		c0.131,0,0.27-0.04,0.424-0.107c0.143-0.073,0.383-0.241,0.719-0.502v1.335c-0.4,0.339-0.799,0.591-1.203,0.755
		c-0.404,0.161-0.822,0.242-1.268,0.242c-0.418,0-0.73-0.091-0.938-0.266C153.983,17.502,153.86,17.226,153.831,16.845
		 M167.491,15.149v2.231c-0.557,0.198-1.1,0.345-1.619,0.44c-0.52,0.095-1.043,0.145-1.557,0.145c-1.793,0-3.258-0.539-4.41-1.613
		c-1.15-1.078-1.721-2.439-1.721-4.109c0-1.622,0.57-2.98,1.721-4.079c1.152-1.088,2.586-1.638,4.313-1.638
		c0.531,0,1.057,0.058,1.572,0.162c0.516,0.111,1.02,0.283,1.52,0.516v2.338c-0.508-0.307-1.004-0.539-1.504-0.684
		c-0.496-0.146-0.998-0.219-1.514-0.219c-1.125,0-2.047,0.337-2.76,1.013c-0.705,0.671-1.057,1.536-1.057,2.591
		c0,1.08,0.361,1.96,1.084,2.634c0.715,0.677,1.666,1.018,2.834,1.018c0.547,0,1.064-0.061,1.578-0.181
		C166.481,15.591,166.993,15.399,167.491,15.149 M169.532,3.535c0-0.349,0.121-0.643,0.359-0.878
		c0.236-0.241,0.533-0.361,0.877-0.361c0.35,0,0.643,0.12,0.881,0.361c0.236,0.235,0.357,0.529,0.357,0.878
		c0,0.346-0.121,0.643-0.357,0.876c-0.238,0.24-0.531,0.358-0.881,0.358c-0.344,0-0.641-0.118-0.877-0.358
		C169.653,4.178,169.532,3.881,169.532,3.535 M169.677,6.766h2.186v10.985h-2.186V6.766z M176.321,12.245
		c0,1.024,0.346,1.896,1.035,2.617c0.689,0.722,1.521,1.082,2.498,1.082c0.971,0,1.797-0.36,2.49-1.088
		c0.695-0.728,1.045-1.593,1.045-2.611c0-1.011-0.35-1.87-1.039-2.591c-0.689-0.722-1.521-1.084-2.496-1.084
		c-0.977,0-1.809,0.362-2.498,1.084C176.667,10.375,176.321,11.234,176.321,12.245 M174.032,12.243c0-1.589,0.566-2.943,1.701-4.051
		c1.129-1.109,2.514-1.666,4.145-1.666c0.771,0,1.504,0.146,2.205,0.432c0.705,0.291,1.328,0.704,1.883,1.244
		c0.566,0.572,0.994,1.195,1.287,1.877c0.291,0.685,0.436,1.404,0.436,2.164c0,0.755-0.145,1.49-0.449,2.202
		c-0.305,0.713-0.723,1.338-1.273,1.867c-0.555,0.542-1.176,0.956-1.867,1.232c-0.697,0.284-1.436,0.421-2.221,0.421
		c-1.631,0-3.016-0.558-4.145-1.663C174.599,15.19,174.032,13.835,174.032,12.243 M187.771,17.751V6.766h2.191V8.11
		c0.545-0.525,1.086-0.906,1.631-1.152c0.545-0.235,1.127-0.356,1.758-0.356c1.182,0,2.119,0.345,2.807,1.033
		c0.691,0.691,1.025,1.633,1.025,2.842v7.274h-2.186v-6.716c0-0.89-0.184-1.548-0.563-1.971c-0.377-0.425-0.961-0.633-1.754-0.633
		c-0.563,0-1.055,0.105-1.48,0.326c-0.422,0.212-0.838,0.574-1.238,1.076v7.917H187.771z M205.313,15.514v-3.216
		c-1.469,0.454-2.486,0.88-3.045,1.268c-0.561,0.392-0.838,0.842-0.838,1.357c0,0.447,0.143,0.796,0.432,1.042
		c0.289,0.247,0.693,0.368,1.213,0.368c0.395,0,0.773-0.068,1.145-0.207C204.591,15.981,204.958,15.783,205.313,15.514
		 M205.401,16.845c-0.559,0.391-1.082,0.669-1.58,0.842c-0.49,0.169-1.027,0.253-1.596,0.253c-0.982,0-1.748-0.234-2.307-0.704
		c-0.557-0.472-0.83-1.124-0.83-1.941c0-0.778,0.301-1.462,0.902-2.047c0.604-0.585,1.512-1.08,2.721-1.487l2.602-0.869
		c0.012-0.063,0.014-0.126,0.018-0.189c0.006-0.067,0.012-0.158,0.012-0.272c0-0.661-0.168-1.137-0.484-1.426
		c-0.318-0.282-0.846-0.433-1.588-0.433c-0.605,0-1.236,0.13-1.889,0.386c-0.648,0.264-1.301,0.644-1.949,1.149V7.943
		c0.566-0.463,1.191-0.807,1.895-1.044c0.695-0.234,1.432-0.35,2.223-0.35c1.408,0,2.434,0.314,3.08,0.934
		c0.635,0.62,0.959,1.629,0.959,3.015v4.646c0,0.389,0.031,0.669,0.102,0.827c0.064,0.162,0.178,0.245,0.344,0.245
		c0.129,0,0.27-0.04,0.418-0.107c0.145-0.073,0.385-0.241,0.717-0.502v1.335c-0.395,0.339-0.793,0.591-1.201,0.755
		c-0.402,0.161-0.824,0.242-1.258,0.242c-0.422,0-0.736-0.091-0.945-0.266C205.552,17.502,205.431,17.226,205.401,16.845
		 M210.534,1.117h2.191v16.634h-2.191V1.117z M8.243,39.768v-6.184c-0.36-0.252-0.728-0.44-1.099-0.565
		c-0.371-0.121-0.771-0.186-1.198-0.186c-1.118,0-2,0.344-2.637,1.026c-0.648,0.683-0.966,1.622-0.966,2.818
		s0.318,2.137,0.966,2.824c0.638,0.686,1.519,1.027,2.637,1.027c0.426,0,0.827-0.061,1.198-0.185
		C7.515,40.22,7.882,40.028,8.243,39.768 M8.243,41.602c-0.408,0.272-0.846,0.481-1.303,0.616c-0.467,0.133-0.981,0.201-1.552,0.201
		c-1.587,0-2.878-0.531-3.88-1.595C0.504,39.768,0,38.39,0,36.698c0-1.687,0.504-3.063,1.507-4.123
		c1.002-1.063,2.292-1.596,3.88-1.596c0.559,0,1.068,0.071,1.533,0.209c0.466,0.137,0.908,0.354,1.322,0.65v-6.264h2.183v16.627
		H8.243V41.602z M22.896,41.038c-0.727,0.469-1.478,0.822-2.25,1.055c-0.775,0.232-1.567,0.351-2.395,0.351
		c-1.734,0-3.123-0.538-4.155-1.61c-1.037-1.075-1.551-2.507-1.551-4.297c0-1.642,0.495-2.974,1.495-3.996
		c0.992-1.024,2.289-1.536,3.887-1.536c1.589,0,2.846,0.521,3.772,1.56c0.927,1.04,1.387,2.437,1.387,4.208v0.325h-8.227
		c0.062,1.034,0.407,1.845,1.021,2.431c0.617,0.578,1.451,0.871,2.486,0.871c0.695,0,1.43-0.129,2.184-0.385
		c0.76-0.259,1.539-0.65,2.345-1.176V41.038z M14.859,35.532l5.814-0.009c-0.072-0.794-0.359-1.43-0.866-1.911
		c-0.507-0.483-1.141-0.729-1.905-0.729c-0.839,0-1.519,0.221-2.031,0.671C15.356,34.006,15.021,34.664,14.859,35.532
		 M45.818,34.052v7.03c-1.092,0.476-2.13,0.832-3.104,1.067c-0.98,0.233-1.912,0.351-2.802,0.351c-0.997,0-1.941-0.12-2.817-0.37
		c-0.881-0.242-1.689-0.608-2.427-1.092c-1.238-0.809-2.198-1.839-2.883-3.095c-0.684-1.259-1.028-2.63-1.028-4.122
		c0-1.116,0.231-2.198,0.68-3.25c0.452-1.046,1.092-1.967,1.926-2.75c0.875-0.848,1.873-1.478,2.971-1.893
		c1.103-0.411,2.333-0.616,3.698-0.616c0.925,0,1.854,0.111,2.785,0.332c0.935,0.226,1.887,0.556,2.859,0.997v2.583
		c-1.053-0.573-2.042-0.994-2.972-1.267c-0.929-0.271-1.829-0.408-2.701-0.408c-1.94,0-3.545,0.603-4.809,1.811
		c-1.272,1.208-1.903,2.725-1.903,4.548c0,1.796,0.622,3.299,1.877,4.509c1.247,1.206,2.824,1.813,4.718,1.813
		c0.565,0,1.139-0.063,1.713-0.182c0.568-0.129,1.161-0.313,1.771-0.569V36.26h-3.132v-2.208H45.818z M58.145,41.038
		c-0.729,0.469-1.479,0.822-2.252,1.055c-0.774,0.232-1.569,0.351-2.397,0.351c-1.734,0-3.122-0.538-4.153-1.61
		c-1.039-1.075-1.549-2.507-1.549-4.297c0-1.642,0.5-2.974,1.492-3.996c0.993-1.024,2.293-1.536,3.892-1.536
		c1.586,0,2.844,0.521,3.77,1.56c0.925,1.04,1.389,2.437,1.389,4.208v0.325h-8.229c0.063,1.034,0.406,1.845,1.024,2.431
		c0.617,0.578,1.453,0.871,2.485,0.871c0.695,0,1.427-0.129,2.184-0.385c0.756-0.259,1.54-0.65,2.346-1.176V41.038z M50.105,35.532
		l5.815-0.009c-0.072-0.794-0.36-1.43-0.87-1.911c-0.504-0.483-1.137-0.729-1.898-0.729c-0.84,0-1.518,0.221-2.033,0.671
		C50.602,34.006,50.264,34.664,50.105,35.532 M60.38,42.202V31.22h2.188v1.344c0.547-0.521,1.093-0.902,1.637-1.145
		c0.542-0.243,1.124-0.365,1.75-0.365c1.188,0,2.125,0.348,2.812,1.035c0.685,0.69,1.023,1.634,1.023,2.842v7.271h-2.182v-6.714
		c0-0.886-0.189-1.547-0.568-1.967c-0.374-0.423-0.958-0.638-1.749-0.638c-0.568,0-1.058,0.109-1.482,0.329
		c-0.421,0.213-0.835,0.577-1.241,1.076v7.913H60.38z M82.169,41.038c-0.731,0.469-1.479,0.822-2.25,1.055
		c-0.78,0.232-1.572,0.351-2.399,0.351c-1.733,0-3.123-0.538-4.154-1.61c-1.033-1.075-1.552-2.507-1.552-4.297
		c0-1.642,0.5-2.974,1.497-3.996c0.992-1.024,2.289-1.536,3.89-1.536c1.585,0,2.844,0.521,3.766,1.56
		c0.933,1.04,1.395,2.437,1.395,4.208v0.325h-8.228c0.063,1.034,0.405,1.845,1.021,2.431c0.618,0.578,1.445,0.871,2.481,0.871
		c0.701,0,1.433-0.129,2.183-0.385c0.76-0.259,1.543-0.65,2.351-1.176V41.038z M74.133,35.532l5.812-0.009
		c-0.072-0.794-0.362-1.43-0.868-1.911c-0.505-0.483-1.139-0.729-1.901-0.729c-0.84,0-1.52,0.221-2.033,0.671
		C74.627,34.006,74.287,34.664,74.133,35.532 M84.427,42.202V31.22h2.189v2.385c0.608-0.958,1.162-1.624,1.648-2.001
		c0.486-0.384,1.013-0.572,1.584-0.572c0.397,0,0.804,0.086,1.205,0.261c0.409,0.172,0.848,0.443,1.304,0.807l-1.187,1.953
		c-0.358-0.311-0.698-0.534-1.023-0.677c-0.325-0.142-0.667-0.208-1.022-0.208c-0.591,0-1.11,0.251-1.56,0.75
		c-0.44,0.5-0.755,1.193-0.948,2.08v6.205H84.427z M98.931,39.971v-3.222c-1.472,0.458-2.494,0.886-3.048,1.271
		c-0.559,0.391-0.839,0.842-0.839,1.353c0,0.454,0.146,0.802,0.435,1.045c0.288,0.251,0.691,0.37,1.215,0.37
		c0.391,0,0.77-0.068,1.143-0.205C98.207,40.441,98.572,40.237,98.931,39.971 M99.014,41.3c-0.558,0.389-1.082,0.67-1.579,0.839
		c-0.497,0.17-1.026,0.26-1.597,0.26c-0.98,0-1.748-0.241-2.303-0.71s-0.833-1.122-0.833-1.945c0-0.772,0.303-1.454,0.906-2.044
		c0.6-0.583,1.511-1.082,2.719-1.486l2.605-0.864c0.009-0.068,0.011-0.13,0.016-0.192c0.003-0.063,0.01-0.156,0.01-0.271
		c0-0.662-0.166-1.136-0.485-1.423c-0.319-0.293-0.847-0.435-1.587-0.435c-0.606,0-1.234,0.129-1.887,0.385
		c-0.651,0.26-1.303,0.641-1.95,1.144v-2.158c0.566-0.465,1.196-0.809,1.896-1.045c0.692-0.23,1.434-0.35,2.218-0.35
		c1.41,0,2.435,0.313,3.082,0.935c0.643,0.622,0.959,1.628,0.959,3.012V39.6c0,0.389,0.033,0.664,0.101,0.825
		c0.071,0.165,0.179,0.244,0.341,0.244c0.138,0,0.271-0.038,0.425-0.105c0.146-0.073,0.387-0.24,0.717-0.5v1.336
		c-0.399,0.336-0.792,0.59-1.198,0.75c-0.409,0.166-0.825,0.249-1.265,0.249c-0.423,0-0.731-0.093-0.947-0.269
		C99.165,41.96,99.042,41.678,99.014,41.3 M104.148,25.575h2.187v16.627h-2.187V25.575z M114.886,40.911v-3.141
		c0.755,0.865,1.478,1.483,2.159,1.862c0.686,0.384,1.418,0.573,2.193,0.573c0.823,0,1.47-0.189,1.949-0.574
		c0.475-0.385,0.713-0.905,0.713-1.565c0-0.535-0.163-1.008-0.482-1.422c-0.32-0.401-1.084-0.992-2.296-1.766
		c-1.881-1.214-3.059-2.146-3.539-2.811c-0.482-0.667-0.722-1.466-0.722-2.383c0-1.291,0.462-2.352,1.375-3.179
		c0.913-0.827,2.094-1.244,3.533-1.244c0.644,0,1.272,0.096,1.898,0.282c0.619,0.188,1.25,0.468,1.883,0.858V29.1
		c-0.731-0.587-1.4-1.004-2.021-1.277c-0.618-0.261-1.235-0.397-1.85-0.397c-0.745,0-1.36,0.186-1.828,0.553
		c-0.47,0.369-0.703,0.842-0.703,1.42c0,0.824,0.972,1.849,2.933,3.07c0.155,0.096,0.273,0.167,0.355,0.214
		c1.589,0.991,2.633,1.863,3.127,2.62c0.489,0.753,0.732,1.693,0.732,2.813c0,1.267-0.455,2.317-1.376,3.146
		c-0.919,0.825-2.092,1.239-3.529,1.239c-0.892,0-1.706-0.123-2.423-0.38C116.247,41.867,115.557,41.46,114.886,40.911
		 M131.971,39.971v-3.222c-1.477,0.458-2.495,0.886-3.053,1.271c-0.556,0.391-0.837,0.842-0.837,1.353
		c0,0.454,0.146,0.802,0.435,1.045c0.29,0.251,0.692,0.37,1.218,0.37c0.392,0,0.771-0.068,1.143-0.205
		C131.249,40.441,131.613,40.237,131.971,39.971 M132.056,41.3c-0.556,0.389-1.082,0.67-1.577,0.839
		c-0.497,0.17-1.031,0.26-1.599,0.26c-0.984,0-1.747-0.241-2.306-0.71c-0.557-0.469-0.834-1.122-0.834-1.945
		c0-0.772,0.303-1.454,0.906-2.044c0.6-0.583,1.51-1.082,2.719-1.486l2.606-0.864c0.006-0.068,0.012-0.13,0.016-0.192
		c0-0.063,0.012-0.156,0.012-0.271c0-0.662-0.168-1.136-0.489-1.423c-0.32-0.293-0.844-0.435-1.583-0.435
		c-0.611,0-1.239,0.129-1.893,0.385c-0.648,0.26-1.297,0.641-1.948,1.144v-2.158c0.56-0.465,1.193-0.809,1.89-1.045
		c0.699-0.23,1.434-0.35,2.222-0.35c1.411,0,2.437,0.313,3.085,0.935c0.639,0.622,0.958,1.628,0.958,3.012V39.6
		c0,0.389,0.033,0.664,0.104,0.825c0.066,0.165,0.178,0.244,0.34,0.244c0.135,0,0.271-0.038,0.426-0.105
		c0.143-0.073,0.385-0.24,0.715-0.5v1.336c-0.398,0.336-0.795,0.59-1.199,0.75c-0.408,0.166-0.828,0.249-1.263,0.249
		c-0.426,0-0.736-0.093-0.946-0.269C132.204,41.96,132.085,41.678,132.056,41.3 M137.147,42.202V31.22h2.184v2.385
		c0.607-0.958,1.158-1.624,1.648-2.001c0.486-0.384,1.014-0.572,1.584-0.572c0.4,0,0.799,0.086,1.207,0.261
		c0.412,0.172,0.842,0.443,1.305,0.807l-1.195,1.953c-0.35-0.311-0.697-0.534-1.018-0.677c-0.324-0.142-0.668-0.208-1.025-0.208
		c-0.59,0-1.109,0.251-1.555,0.75c-0.445,0.5-0.762,1.193-0.951,2.08v6.205H137.147z M146.247,42.202V31.22h2.188v1.344
		c0.551-0.521,1.094-0.902,1.639-1.145c0.541-0.243,1.127-0.365,1.75-0.365c0.809,0,1.488,0.152,2.027,0.447
		c0.549,0.294,1.006,0.767,1.373,1.406c0.676-0.664,1.305-1.135,1.898-1.429c0.588-0.281,1.217-0.425,1.883-0.425
		c1.197,0,2.143,0.348,2.838,1.035c0.693,0.69,1.037,1.634,1.037,2.842v7.271h-2.223v-6.714c0-0.896-0.182-1.553-0.551-1.974
		c-0.371-0.416-0.951-0.631-1.729-0.631c-0.582,0-1.084,0.109-1.514,0.329c-0.428,0.213-0.842,0.577-1.244,1.076v7.913h-2.141
		v-6.714c0-0.886-0.188-1.547-0.564-1.967c-0.377-0.423-0.961-0.638-1.758-0.638c-0.559,0-1.053,0.109-1.479,0.329
		c-0.422,0.213-0.836,0.577-1.244,1.076v7.913H146.247z M165.507,27.984c0-0.343,0.119-0.639,0.355-0.872
		c0.234-0.241,0.529-0.359,0.885-0.359c0.342,0,0.635,0.118,0.877,0.359c0.24,0.233,0.35,0.529,0.35,0.872
		c0,0.349-0.109,0.647-0.35,0.883c-0.242,0.239-0.535,0.357-0.877,0.357c-0.355,0-0.65-0.118-0.885-0.357
		C165.626,28.632,165.507,28.333,165.507,27.984 M165.649,31.22h2.186v10.982h-2.186V31.22z M180.358,41.038
		c-0.734,0.469-1.482,0.822-2.254,1.055c-0.775,0.232-1.57,0.351-2.404,0.351c-1.727,0-3.115-0.538-4.148-1.61
		c-1.035-1.075-1.549-2.507-1.549-4.297c0-1.642,0.498-2.974,1.49-3.996c0.996-1.024,2.295-1.536,3.891-1.536
		c1.588,0,2.844,0.521,3.773,1.56c0.922,1.04,1.393,2.437,1.393,4.208v0.325h-8.23c0.064,1.034,0.406,1.845,1.021,2.431
		c0.615,0.578,1.451,0.871,2.48,0.871c0.697,0,1.428-0.129,2.184-0.385c0.758-0.259,1.543-0.65,2.354-1.176V41.038z M172.319,35.532
		l5.813-0.009c-0.076-0.794-0.359-1.43-0.871-1.911c-0.504-0.483-1.137-0.729-1.898-0.729c-0.842,0-1.518,0.221-2.033,0.671
		C172.813,34.006,172.476,34.664,172.319,35.532"/>
	<path fill-rule="evenodd" clip-rule="evenodd" fill="#FFFFFF" d="M182.591,42.202V31.22h2.184v1.344
		c0.553-0.521,1.094-0.902,1.643-1.145c0.541-0.243,1.125-0.365,1.746-0.365c1.189,0,2.131,0.348,2.816,1.035
		c0.686,0.691,1.025,1.634,1.025,2.842v7.271h-2.188v-6.714c0-0.886-0.189-1.546-0.566-1.967c-0.375-0.423-0.963-0.638-1.75-0.638
		c-0.561,0-1.055,0.11-1.479,0.329c-0.424,0.213-0.842,0.577-1.248,1.076v7.913H182.591z M200.802,41.86
		c-0.336,0.19-0.709,0.333-1.104,0.423c-0.389,0.094-0.811,0.136-1.266,0.136c-1.232,0-2.102-0.293-2.607-0.881
		c-0.502-0.586-0.75-1.656-0.75-3.209v-5.206h-1.867v-0.216l3.836-4.242h0.252v2.555h3.438v1.903h-3.438v5.038
		c0,0.911,0.111,1.499,0.34,1.765c0.227,0.267,0.643,0.397,1.264,0.397c0.334,0,0.658-0.041,0.971-0.127
		c0.32-0.091,0.631-0.225,0.932-0.406V41.86z M204.147,36.703c0,1.022,0.35,1.894,1.039,2.609c0.688,0.722,1.523,1.086,2.5,1.086
		c0.965,0,1.799-0.364,2.49-1.089c0.695-0.725,1.039-1.594,1.039-2.606c0-1.011-0.344-1.879-1.033-2.592
		c-0.695-0.722-1.521-1.083-2.496-1.083c-0.977,0-1.813,0.361-2.5,1.083C204.497,34.824,204.147,35.692,204.147,36.703
		 M201.86,36.698c0-1.591,0.572-2.941,1.695-4.054c1.137-1.108,2.52-1.664,4.148-1.664c0.771,0,1.51,0.145,2.209,0.438
		c0.703,0.285,1.324,0.696,1.887,1.235c0.557,0.573,0.986,1.2,1.281,1.883c0.293,0.682,0.439,1.399,0.439,2.161
		c0,0.755-0.146,1.485-0.449,2.204c-0.305,0.707-0.729,1.335-1.271,1.866c-0.563,0.542-1.182,0.959-1.873,1.231
		c-0.695,0.283-1.434,0.419-2.223,0.419c-1.629,0-3.012-0.557-4.148-1.664C202.433,39.642,201.86,38.294,201.86,36.698"/>
</g>
</svg>
